<svg width="33" height="48" viewBox="0 0 33 48" fill="none" xmlns="http://www.w3.org/2000/svg">
<path d="M16.504 0C7.3889 0 0 7.47702 0 16.7109C0 25.9448 16.504 48 16.504 48C16.504 48 33 25.9448 33 16.7109C33 7.47702 25.6192 0 16.504 0ZM16.504 27.7753C10.4703 27.7753 5.58201 22.8233 5.58201 16.7109C5.58201 10.5986 10.4703 5.64658 16.504 5.64658C22.5378 5.64658 27.4261 10.5986 27.4261 16.7109C27.4261 22.8233 22.5378 27.7753 16.504 27.7753Z" fill="#BE4528"/>
<rect x="4" y="4" width="25" height="25" rx="12.5" fill="white"/>
<path fill-rule="evenodd" clip-rule="evenodd" d="M25.9995 16.5632C21.742 15.4795 18.0092 14.5488 14.2933 13.5437C13.8902 13.4362 14.0036 13.4485 13.4368 13.3038C12.9833 11.4507 12.2191 8.91926 11.8076 7C15.3094 10.8675 13.9364 9.90785 19.1009 10.8303C21.8637 11.3225 22.9302 11.5665 24.7609 11.7982C25.0003 12.4434 25.7266 15.1817 25.9995 16.5632Z" fill="#3F6BA9"/>
<path fill-rule="evenodd" clip-rule="evenodd" d="M10.5986 24.9312C13.5966 21.7669 16.2124 18.9748 18.8787 16.2407C19.1684 15.9429 19.2607 15.8685 19.6638 15.4465C21.4945 15.9594 23.9928 16.4889 25.9033 17.0473C20.7849 18.2344 22.0446 17.8125 19.0046 21.6965C17.2328 23.9591 16.5189 24.6582 15.4398 26.1307L10.5986 24.9312Z" fill="#16428A"/>
<path fill-rule="evenodd" clip-rule="evenodd" d="M11.506 7.06201C12.4423 11.2604 13.2233 15.6325 14.231 19.2973C14.3402 19.6944 14.2646 19.4835 14.4242 20.0377C13.1519 21.4524 11.7369 23.1234 10.259 24.6167C11.6278 21.0553 11.8209 20.8857 10.007 16.0379C9.0371 13.4444 8.72639 12.4062 8 10.7351C8.44087 10.1974 10.4353 7.99269 11.506 7.06201Z" fill="#78ADD3"/>
</svg>
